<!DOCTYPE svg PUBLIC "-//W3C//DTD SVG 20010904//EN" "http://www.w3.org/TR/2001/REC-SVG-20010904/DTD/svg10.dtd">
<svg version="1.0" xmlns="http://www.w3.org/2000/svg" width="367px" height="367px" viewBox="0 0 3670 3670" preserveAspectRatio="xMidYMid meet">
<g id="layer1" fill="#03b5af" stroke="none">
 <path d="M1526 3654 c-597 -111 -1074 -467 -1340 -1001 -121 -242 -176 -469 -184 -756 -8 -337 41 -578 178 -863 270 -561 812 -949 1432 -1025 147 -17 446 -7 583 21 372 74 707 258 970 531 239 248 389 528 472 875 27 115 28 127 28 394 0 250 -2 285 -23 383 -154 719 -704 1270 -1423 1428 -91 20 -137 23 -359 25 -191 2 -275 -1 -334 -12z m504 -125 c589 -73 1091 -430 1340 -951 125 -262 178 -520 167 -808 -17 -451 -199 -850 -532 -1168 -400 -382 -970 -545 -1512 -432 -592 123 -1078 554 -1268 1123 -107 319 -119 632 -39 956 21 84 80 262 87 261 1 0 56 -53 122 -117 136 -132 333 -292 480 -392 308 -209 767 -439 1030 -516 101 -29 295 -47 295 -27 0 36 -202 145 -392 211 -225 79 -392 160 -663 322 -154 92 -285 182 -390 267 -69 56 -69 53 -29 190 55 194 163 359 290 444 94 64 175 90 299 95 223 11 465 -76 649 -233 122 -104 219 -233 443 -590 242 -385 384 -545 582 -652 l72 -39 -78 -46 c-229 -134 -490 -225 -788 -273 -154 -24 -509 -30 -679 -10 -261 30 -470 87 -662 181 -187 91 -307 195 -375 325 -21 39 -24 59 -24 145 0 94 2 104 34 165 18 36 42 76 52 89 11 13 19 27 19 30 0 7 -94 81 -102 81 -3 0 -25 -29 -48 -65 -176 -271 -112 -552 176 -768 207 -155 541 -273 904 -319 171 -21 535 -16 709 11 427 65 782 213 1084 450 38 30 65 57 60 61 -4 4 -48 16 -98 28 -272 65 -435 218 -723 678 -211 338 -321 487 -434 591 -206 188 -469 292 -739 293 -217 0 -356 -56 -499 -199 -107 -108 -160 -200 -221 -384 l-47 -139 -121 121 c-67 67 -121 125 -121 130 0 4 36 62 79 128 175 263 444 493 726 617 152 66 361 123 515 139 79 8 291 6 370 -4z"/>
 </g>

</svg>